#N canvas 339 515 570 621 10;
#X obj 18 181 midirealtimein;
#X msg 18 536 1;
#X msg 47 536 0;
#X obj 266 374 timer;
#X obj 266 352 t b b;
#X obj 266 418 /;
#X obj 266 471 expr int(0.5 + $f1);
#X msg 366 414 clear;
#X obj 18 205 sel 250 252 248;
#X obj 266 495 t f f;
#X obj 293 525 -;
#X obj 365 336 sel 1;
#X obj 293 546 abs;
#X obj 457 489 >= 1;
#X obj 457 469 spigot 1;
#X obj 339 364 t b b;
#X msg 472 436 0;
#X msg 502 436 1;
#X msg 266 397 30000 \$1;
#X obj 502 413 del 4000;
#X obj 266 567 outlet;
#X obj 137 567 outlet;
#X obj 151 15 inlet;
#X obj 151 190 /;
#X msg 151 169 1 \$1;
#X msg 151 126 2 \$1;
#X obj 151 60 log;
#X obj 151 83 / 0.693147;
#X obj 151 104 - 2;
#X obj 151 147 pow;
#X obj 151 210 * 24;
#X obj 151 231 int;
#X obj 28 567 outlet;
#X obj 151 37 route resolution;
#X obj 266 449 cyclone/mean;
#X obj 96 306 f 0;
#X obj 126 306 + 1;
#X msg 66 371 0;
#X obj 106 329 t f f;
#X obj 137 372 sel 0;
#X obj 96 371 sel 5;
#X obj 151 330 t b f;
#X obj 222 283 f 0;
#X obj 252 283 + 1;
#X msg 192 330 0;
#X obj 232 306 t f f;
#X obj 266 330 sel 0;
#X obj 222 330 sel 11;
#X obj 8 230 t b b;
#X msg 55 260 0;
#X connect 0 0 8 0;
#X connect 1 0 32 0;
#X connect 2 0 32 0;
#X connect 3 0 18 0;
#X connect 4 0 3 0;
#X connect 4 1 3 1;
#X connect 5 0 34 0;
#X connect 6 0 9 0;
#X connect 7 0 34 0;
#X connect 8 0 48 0;
#X connect 8 1 2 0;
#X connect 8 2 35 0;
#X connect 8 2 42 0;
#X connect 9 0 10 1;
#X connect 9 0 20 0;
#X connect 9 1 10 0;
#X connect 10 0 12 0;
#X connect 11 0 15 0;
#X connect 12 0 14 0;
#X connect 13 0 11 0;
#X connect 14 0 13 0;
#X connect 15 0 16 0;
#X connect 15 0 19 0;
#X connect 15 1 7 0;
#X connect 16 0 14 1;
#X connect 17 0 14 1;
#X connect 18 0 5 0;
#X connect 19 0 17 0;
#X connect 22 0 33 0;
#X connect 23 0 30 0;
#X connect 24 0 23 0;
#X connect 25 0 29 0;
#X connect 26 0 27 0;
#X connect 27 0 28 0;
#X connect 28 0 25 0;
#X connect 29 0 24 0;
#X connect 30 0 31 0;
#X connect 31 0 41 0;
#X connect 33 0 26 0;
#X connect 34 0 6 0;
#X connect 35 0 36 0;
#X connect 35 0 38 0;
#X connect 36 0 35 1;
#X connect 37 0 35 1;
#X connect 38 0 40 0;
#X connect 38 1 39 0;
#X connect 39 0 21 0;
#X connect 40 0 37 0;
#X connect 41 0 37 0;
#X connect 41 1 40 1;
#X connect 42 0 43 0;
#X connect 42 0 45 0;
#X connect 43 0 42 1;
#X connect 44 0 42 1;
#X connect 45 0 47 0;
#X connect 45 1 46 0;
#X connect 46 0 4 0;
#X connect 47 0 44 0;
#X connect 48 0 49 0;
#X connect 48 1 1 0;
#X connect 49 0 35 0;
